# xmcd
# Copyright (C) 1995-1998 Ti Kan
#
# Track frame offsets:
#       150
#       10730
#       25207
#       42026
#
# Disc length: 786 seconds
#
# Revision: 3
# Processed by: cddbd v1.5.2PL0 Copyright (c) Steve Scherf et al.
# Submitted via: CD-Import v1.0
#
DISCID=21031004
DTITLE=Infadels - Universe In Reserve
DYEAR=1900
DGENRE=
TTITLE0=Hey Ya Vs. We Willrock You
TTITLE1=Killer Mirror
TTITLE2=Hunting For Witches Vs. In My Place
TTITLE3=Free Things For Poor People
EXTD=
EXTT0=
EXTT1=
EXTT2=
EXTT3=
PLAYORDER=
